<?xml version="1.0" encoding="UTF-8"?>
<svg version="1.1" xmlns="http://www.w3.org/2000/svg" width="500" height="500">
<path d="M0 0 C3.0625 0.1875 3.0625 0.1875 5.0625 2.1875 C5.82420192 8.50800525 3.7833901 12.86386098 1.1875 18.4375 C-2.54116833 26.7667737 -5.87962015 35.1745589 -9 43.75 C-11.98783289 51.95770841 -15.06553484 60.10397838 -18.375 68.1875 C-21.05407105 74.74791536 -23.40928286 81.24684715 -24.9375 88.1875 C-21.74000789 84.33148548 -18.98003394 80.31230722 -16.25 76.125 C9.80718759 36.73477861 9.80718759 36.73477861 26.0625 30.1875 C30.38762937 29.52209548 33.97302944 29.66644886 37.9375 31.5625 C44.32416964 39.45191544 44.17173171 51.64985112 45.21655273 61.31591797 C46.07050437 69.08621143 46.96178929 75.4585676 51.0625 82.1875 C60.37244764 82.36653745 66.56910535 76.49637502 72.98876953 70.34033203 C75.74758142 67.61227016 78.47383747 64.85417559 81.18481445 62.07861328 C85.80031924 57.37023113 90.5098807 53.11873791 95.73046875 49.08203125 C98.20735472 47.15884563 98.20735472 47.15884563 100.625 44.4375 C101.429375 43.695 102.23375 42.9525 103.0625 42.1875 C106.875 42.375 106.875 42.375 110.0625 43.1875 C111.03866226 46.53434203 111.69127566 48.80825017 110.21484375 52.046875 C104.11768672 60.65044352 95.11955889 67.47239743 87.1796875 74.30859375 C84.98691505 76.25457816 82.86701214 78.26962724 80.74047852 80.28735352 C71.78111595 88.72557725 62.54343019 95.88994436 49.78125 95.546875 C45.42042665 94.97044433 42.87396863 93.56419861 40.0625 90.1875 C35.57111057 82.95336875 34.10416831 75.51216589 33.0625 67.1875 C32.80423915 65.3030887 32.54360847 63.41900142 32.28125 61.53515625 C31.52518901 56.08810039 30.78863675 50.6386188 30.0625 45.1875 C26.23295254 44.769825 26.23295254 44.769825 24.4296875 46.5 C23.93726563 47.056875 23.44484375 47.61375 22.9375 48.1875 C21.4296875 49.875 21.4296875 49.875 20.0625 51.1875 C19.4025 51.1875 18.7425 51.1875 18.0625 51.1875 C17.68544922 52.04988281 17.68544922 52.04988281 17.30078125 52.9296875 C15.90002864 55.48374115 14.27409942 57.21705014 12.25 59.3125 C-3.47016936 76.56941669 -14.39508919 97.14185214 -25.09765625 117.71875 C-27.84679699 122.90184338 -30.28547721 127.48702733 -34.9375 131.1875 C-38.5625 131.75 -38.5625 131.75 -41.9375 131.1875 C-44.95339079 128.16461179 -45.36953319 125.81804696 -45.375 121.625 C-44.58289341 95.04542332 -32.43189528 68.91296857 -23.25 44.3125 C-22.93847992 43.47554596 -22.62695984 42.63859192 -22.30599976 41.77627563 C-19.10687969 33.20457304 -15.81213747 24.69104444 -12.16015625 16.30078125 C-11.87860184 15.6525943 -11.59704742 15.00440735 -11.30696106 14.33657837 C-5.10214292 0.3256687 -5.10214292 0.3256687 0 0 Z " fill="#141414" transform="translate(200.9375,168.8125)"/>
<path d="M0 0 C5.97873264 0.11935764 5.97873264 0.11935764 7.08984375 1.23046875 C7.54418673 6.45541307 7.54418673 6.45541307 6.02734375 9.04296875 C3.11382515 10.8286737 0.46360188 11.04644558 -2.91015625 11.23046875 C-3.57015625 10.57046875 -4.23015625 9.91046875 -4.91015625 9.23046875 C-4.28778996 0.51734071 -4.28778996 0.51734071 0 0 Z " fill="#2E2E2E" transform="translate(311.91015625,271.76953125)"/>
<path d="M0 0 C0.66 0.33 1.32 0.66 2 1 C-4.93 7.93 -11.86 14.86 -19 22 C-19.99 21.67 -20.98 21.34 -22 21 C-19.46258085 18.43326478 -16.91930885 15.87240443 -14.375 13.3125 C-13.66214844 12.59126953 -12.94929688 11.87003906 -12.21484375 11.12695312 C-8.29554527 7.18967621 -4.3394062 3.47015607 0 0 Z " fill="#595959" transform="translate(294,220)"/>
<path d="M0 0 C0.66 0.33 1.32 0.66 2 1 C-3.28 6.28 -8.56 11.56 -14 17 C-14.66 16.67 -15.32 16.34 -16 16 C-14.27538679 14.07906479 -12.54557391 12.163278 -10.8125 10.25 C-10.32974609 9.71117187 -9.84699219 9.17234375 -9.34960938 8.6171875 C-6.43837795 5.41287909 -3.47293499 2.6158121 0 0 Z " fill="#4F4F4F" transform="translate(220,203)"/>
</svg>
